<svg width="58" height="4" viewBox="0 0 58 4" fill="none" xmlns="http://www.w3.org/2000/svg">
<path d="M1.3125 0.6875H57.3125" stroke="#858585" stroke-width="0.875" stroke-linecap="round"/>
<path d="M3.0625 0.6875L1.3125 3.3125" stroke="#858585" stroke-width="0.875" stroke-linecap="round"/>
<path d="M5.6875 0.6875L3.9375 3.3125" stroke="#858585" stroke-width="0.875" stroke-linecap="round"/>
<path d="M8.3125 0.6875L6.5625 3.3125" stroke="#858585" stroke-width="0.875" stroke-linecap="round"/>
<path d="M10.9375 0.6875L9.1875 3.3125" stroke="#858585" stroke-width="0.875" stroke-linecap="round"/>
<path d="M13.5625 0.6875L11.8125 3.3125" stroke="#858585" stroke-width="0.875" stroke-linecap="round"/>
<path d="M16.1875 0.6875L14.4375 3.3125" stroke="#858585" stroke-width="0.875" stroke-linecap="round"/>
<path d="M18.8125 0.6875L17.0625 3.3125" stroke="#858585" stroke-width="0.875" stroke-linecap="round"/>
<path d="M21.4375 0.6875L19.6875 3.3125" stroke="#858585" stroke-width="0.875" stroke-linecap="round"/>
<path d="M24.0625 0.6875L22.3125 3.3125" stroke="#858585" stroke-width="0.875" stroke-linecap="round"/>
<path d="M26.6875 0.6875L24.9375 3.3125" stroke="#858585" stroke-width="0.875" stroke-linecap="round"/>
<path d="M29.3125 0.6875L27.5625 3.3125" stroke="#858585" stroke-width="0.875" stroke-linecap="round"/>
<path d="M31.9375 0.6875L30.1875 3.3125" stroke="#858585" stroke-width="0.875" stroke-linecap="round"/>
<path d="M34.5625 0.6875L32.8125 3.3125" stroke="#858585" stroke-width="0.875" stroke-linecap="round"/>
<path d="M37.1875 0.6875L35.4375 3.3125" stroke="#858585" stroke-width="0.875" stroke-linecap="round"/>
<path d="M39.8125 0.6875L38.0625 3.3125" stroke="#858585" stroke-width="0.875" stroke-linecap="round"/>
<path d="M42.4375 0.6875L40.6875 3.3125" stroke="#858585" stroke-width="0.875" stroke-linecap="round"/>
<path d="M45.0625 0.6875L43.3125 3.3125" stroke="#858585" stroke-width="0.875" stroke-linecap="round"/>
<path d="M47.6875 0.6875L45.9375 3.3125" stroke="#858585" stroke-width="0.875" stroke-linecap="round"/>
<path d="M50.3125 0.6875L48.5625 3.3125" stroke="#858585" stroke-width="0.875" stroke-linecap="round"/>
<path d="M52.9375 0.6875L51.1875 3.3125" stroke="#858585" stroke-width="0.875" stroke-linecap="round"/>
<path d="M55.5625 0.6875L53.8125 3.3125" stroke="#858585" stroke-width="0.875" stroke-linecap="round"/>
</svg>
