<svg width="4" height="58" viewBox="0 0 4 58" fill="none" xmlns="http://www.w3.org/2000/svg">
<path d="M3.3125 1.3125L3.3125 57.3125" stroke="#858585" stroke-width="0.875" stroke-linecap="round"/>
<path d="M3.3125 3.0625L0.6875 1.3125" stroke="#858585" stroke-width="0.875" stroke-linecap="round"/>
<path d="M3.3125 5.6875L0.6875 3.9375" stroke="#858585" stroke-width="0.875" stroke-linecap="round"/>
<path d="M3.3125 8.3125L0.6875 6.5625" stroke="#858585" stroke-width="0.875" stroke-linecap="round"/>
<path d="M3.3125 10.9375L0.6875 9.1875" stroke="#858585" stroke-width="0.875" stroke-linecap="round"/>
<path d="M3.3125 13.5625L0.6875 11.8125" stroke="#858585" stroke-width="0.875" stroke-linecap="round"/>
<path d="M3.3125 16.1875L0.6875 14.4375" stroke="#858585" stroke-width="0.875" stroke-linecap="round"/>
<path d="M3.3125 18.8125L0.6875 17.0625" stroke="#858585" stroke-width="0.875" stroke-linecap="round"/>
<path d="M3.3125 21.4375L0.6875 19.6875" stroke="#858585" stroke-width="0.875" stroke-linecap="round"/>
<path d="M3.3125 24.0625L0.6875 22.3125" stroke="#858585" stroke-width="0.875" stroke-linecap="round"/>
<path d="M3.3125 26.6875L0.6875 24.9375" stroke="#858585" stroke-width="0.875" stroke-linecap="round"/>
<path d="M3.3125 29.3125L0.6875 27.5625" stroke="#858585" stroke-width="0.875" stroke-linecap="round"/>
<path d="M3.3125 31.9375L0.6875 30.1875" stroke="#858585" stroke-width="0.875" stroke-linecap="round"/>
<path d="M3.3125 34.5625L0.6875 32.8125" stroke="#858585" stroke-width="0.875" stroke-linecap="round"/>
<path d="M3.3125 37.1875L0.6875 35.4375" stroke="#858585" stroke-width="0.875" stroke-linecap="round"/>
<path d="M3.3125 39.8125L0.6875 38.0625" stroke="#858585" stroke-width="0.875" stroke-linecap="round"/>
<path d="M3.3125 42.4375L0.6875 40.6875" stroke="#858585" stroke-width="0.875" stroke-linecap="round"/>
<path d="M3.3125 45.0625L0.6875 43.3125" stroke="#858585" stroke-width="0.875" stroke-linecap="round"/>
<path d="M3.3125 47.6875L0.6875 45.9375" stroke="#858585" stroke-width="0.875" stroke-linecap="round"/>
<path d="M3.3125 50.3125L0.6875 48.5625" stroke="#858585" stroke-width="0.875" stroke-linecap="round"/>
<path d="M3.3125 52.9375L0.6875 51.1875" stroke="#858585" stroke-width="0.875" stroke-linecap="round"/>
<path d="M3.3125 55.5625L0.6875 53.8125" stroke="#858585" stroke-width="0.875" stroke-linecap="round"/>
</svg>
