<svg width="58" height="28" viewBox="0 0 58 28" fill="none" xmlns="http://www.w3.org/2000/svg">
<path d="M1 21H57" stroke="#858585" stroke-width="0.875" stroke-linecap="round"/>
<path d="M2.75 21L1 23.625" stroke="#858585" stroke-width="0.875" stroke-linecap="round"/>
<path d="M5.375 21L3.625 23.625" stroke="#858585" stroke-width="0.875" stroke-linecap="round"/>
<path d="M8 21L6.25 23.625" stroke="#858585" stroke-width="0.875" stroke-linecap="round"/>
<path d="M10.625 21L8.875 23.625" stroke="#858585" stroke-width="0.875" stroke-linecap="round"/>
<path d="M13.25 21L11.5 23.625" stroke="#858585" stroke-width="0.875" stroke-linecap="round"/>
<path d="M15.875 21L14.125 23.625" stroke="#858585" stroke-width="0.875" stroke-linecap="round"/>
<path d="M18.5 21L16.75 23.625" stroke="#858585" stroke-width="0.875" stroke-linecap="round"/>
<path d="M21.125 21L19.375 23.625" stroke="#858585" stroke-width="0.875" stroke-linecap="round"/>
<path d="M23.75 21L22 23.625" stroke="#858585" stroke-width="0.875" stroke-linecap="round"/>
<path d="M26.375 21L24.625 23.625" stroke="#858585" stroke-width="0.875" stroke-linecap="round"/>
<path d="M29 21L27.25 23.625" stroke="#858585" stroke-width="0.875" stroke-linecap="round"/>
<path d="M31.625 21L29.875 23.625" stroke="#858585" stroke-width="0.875" stroke-linecap="round"/>
<path d="M34.25 21L32.5 23.625" stroke="#858585" stroke-width="0.875" stroke-linecap="round"/>
<path d="M36.875 21L35.125 23.625" stroke="#858585" stroke-width="0.875" stroke-linecap="round"/>
<path d="M39.5 21L37.75 23.625" stroke="#858585" stroke-width="0.875" stroke-linecap="round"/>
<path d="M42.125 21L40.375 23.625" stroke="#858585" stroke-width="0.875" stroke-linecap="round"/>
<path d="M44.75 21L43 23.625" stroke="#858585" stroke-width="0.875" stroke-linecap="round"/>
<path d="M47.375 21L45.625 23.625" stroke="#858585" stroke-width="0.875" stroke-linecap="round"/>
<path d="M50 21L48.25 23.625" stroke="#858585" stroke-width="0.875" stroke-linecap="round"/>
<path d="M52.625 21L50.875 23.625" stroke="#858585" stroke-width="0.875" stroke-linecap="round"/>
<path d="M55.25 21L53.5 23.625" stroke="#858585" stroke-width="0.875" stroke-linecap="round"/>
<path d="M27.1056 3.28125C27.9475 1.82292 30.0525 1.82292 30.8944 3.28125L39.2299 17.7188C40.0719 19.1771 39.0194 21 37.3355 21H20.6645C18.9806 21 17.9281 19.1771 18.7701 17.7187L27.1056 3.28125Z" fill="#858585"/>
</svg>
