<svg width="58" height="34" viewBox="0 0 58 34" fill="none" xmlns="http://www.w3.org/2000/svg">
<path d="M26.9703 3.51562C27.8724 1.95312 30.1276 1.95313 31.0297 3.51562L39.9606 18.9844C40.8627 20.5469 39.7351 22.5 37.9309 22.5H20.0691C18.2649 22.5 17.1373 20.5469 18.0394 18.9844L26.9703 3.51562Z" fill="#858585"/>
<circle cx="22.4375" cy="26.25" r="3.75" fill="#858585"/>
<circle cx="35.5625" cy="26.25" r="3.75" fill="#858585"/>
<path d="M1 30H57" stroke="#858585" stroke-width="0.875" stroke-linecap="round"/>
<path d="M2.75 30L1 32.625" stroke="#858585" stroke-width="0.875" stroke-linecap="round"/>
<path d="M5.375 30L3.625 32.625" stroke="#858585" stroke-width="0.875" stroke-linecap="round"/>
<path d="M8 30L6.25 32.625" stroke="#858585" stroke-width="0.875" stroke-linecap="round"/>
<path d="M10.625 30L8.875 32.625" stroke="#858585" stroke-width="0.875" stroke-linecap="round"/>
<path d="M13.25 30L11.5 32.625" stroke="#858585" stroke-width="0.875" stroke-linecap="round"/>
<path d="M15.875 30L14.125 32.625" stroke="#858585" stroke-width="0.875" stroke-linecap="round"/>
<path d="M18.5 30L16.75 32.625" stroke="#858585" stroke-width="0.875" stroke-linecap="round"/>
<path d="M21.125 30L19.375 32.625" stroke="#858585" stroke-width="0.875" stroke-linecap="round"/>
<path d="M23.75 30L22 32.625" stroke="#858585" stroke-width="0.875" stroke-linecap="round"/>
<path d="M26.375 30L24.625 32.625" stroke="#858585" stroke-width="0.875" stroke-linecap="round"/>
<path d="M29 30L27.25 32.625" stroke="#858585" stroke-width="0.875" stroke-linecap="round"/>
<path d="M31.625 30L29.875 32.625" stroke="#858585" stroke-width="0.875" stroke-linecap="round"/>
<path d="M34.25 30L32.5 32.625" stroke="#858585" stroke-width="0.875" stroke-linecap="round"/>
<path d="M36.875 30L35.125 32.625" stroke="#858585" stroke-width="0.875" stroke-linecap="round"/>
<path d="M39.5 30L37.75 32.625" stroke="#858585" stroke-width="0.875" stroke-linecap="round"/>
<path d="M42.125 30L40.375 32.625" stroke="#858585" stroke-width="0.875" stroke-linecap="round"/>
<path d="M44.75 30L43 32.625" stroke="#858585" stroke-width="0.875" stroke-linecap="round"/>
<path d="M47.375 30L45.625 32.625" stroke="#858585" stroke-width="0.875" stroke-linecap="round"/>
<path d="M50 30L48.25 32.625" stroke="#858585" stroke-width="0.875" stroke-linecap="round"/>
<path d="M52.625 30L50.875 32.625" stroke="#858585" stroke-width="0.875" stroke-linecap="round"/>
<path d="M55.25 30L53.5 32.625" stroke="#858585" stroke-width="0.875" stroke-linecap="round"/>
</svg>
