<svg width="58" height="22" viewBox="0 0 58 22" fill="none" xmlns="http://www.w3.org/2000/svg">
<path d="M1 18H57" stroke="#858585" stroke-width="0.875" stroke-linecap="round"/>
<path d="M2.75 18L1 20.625" stroke="#858585" stroke-width="0.875" stroke-linecap="round"/>
<path d="M5.375 18L3.625 20.625" stroke="#858585" stroke-width="0.875" stroke-linecap="round"/>
<path d="M8 18L6.25 20.625" stroke="#858585" stroke-width="0.875" stroke-linecap="round"/>
<path d="M10.625 18L8.875 20.625" stroke="#858585" stroke-width="0.875" stroke-linecap="round"/>
<path d="M13.25 18L11.5 20.625" stroke="#858585" stroke-width="0.875" stroke-linecap="round"/>
<path d="M15.875 18L14.125 20.625" stroke="#858585" stroke-width="0.875" stroke-linecap="round"/>
<path d="M18.5 18L16.75 20.625" stroke="#858585" stroke-width="0.875" stroke-linecap="round"/>
<path d="M21.125 18L19.375 20.625" stroke="#858585" stroke-width="0.875" stroke-linecap="round"/>
<path d="M23.75 18L22 20.625" stroke="#858585" stroke-width="0.875" stroke-linecap="round"/>
<path d="M26.375 18L24.625 20.625" stroke="#858585" stroke-width="0.875" stroke-linecap="round"/>
<path d="M29 18L27.25 20.625" stroke="#858585" stroke-width="0.875" stroke-linecap="round"/>
<path d="M31.625 18L29.875 20.625" stroke="#858585" stroke-width="0.875" stroke-linecap="round"/>
<path d="M34.25 18L32.5 20.625" stroke="#858585" stroke-width="0.875" stroke-linecap="round"/>
<path d="M36.875 18L35.125 20.625" stroke="#858585" stroke-width="0.875" stroke-linecap="round"/>
<path d="M39.5 18L37.75 20.625" stroke="#858585" stroke-width="0.875" stroke-linecap="round"/>
<path d="M42.125 18L40.375 20.625" stroke="#858585" stroke-width="0.875" stroke-linecap="round"/>
<path d="M44.75 18L43 20.625" stroke="#858585" stroke-width="0.875" stroke-linecap="round"/>
<path d="M47.375 18L45.625 20.625" stroke="#858585" stroke-width="0.875" stroke-linecap="round"/>
<path d="M50 18L48.25 20.625" stroke="#858585" stroke-width="0.875" stroke-linecap="round"/>
<path d="M52.625 18L50.875 20.625" stroke="#858585" stroke-width="0.875" stroke-linecap="round"/>
<path d="M55.25 18L53.5 20.625" stroke="#858585" stroke-width="0.875" stroke-linecap="round"/>
<rect x="24" width="9" height="18" rx="2" fill="#858585"/>
</svg>
